<?xml version="1.0" encoding="iso-8859-1"?>
<!-- Uploaded to: SVG Repo, www.svgrepo.com, Generator: SVG Repo Mixer Tools -->
<svg fill="#003262" height="800px" width="800px" version="1.1" id="Layer_1" xmlns="http://www.w3.org/2000/svg" xmlns:xlink="http://www.w3.org/1999/xlink" 
	 viewBox="0 0 512 512" xml:space="preserve">
<g>
	<g>
		<path d="M469.333,64h-42.667C403.136,64,384,83.136,384,106.667V128l-42.731,0.021c-27.776,0.021-51.477,17.835-60.288,42.645
			l-49.963-0.021C222.208,145.813,198.507,128,170.688,128H128v-21.333C128,83.136,108.864,64,85.333,64H42.667
			C19.136,64,0,83.136,0,106.667v298.667C0,428.864,19.136,448,42.667,448h42.667C108.864,448,128,428.864,128,405.333V384h42.688
			c27.819,0,51.52-17.835,60.331-42.667l49.963,0.021C289.792,366.187,313.493,384,341.312,384H384v21.333
			C384,428.864,403.136,448,426.667,448h42.667C492.864,448,512,428.864,512,405.333V106.667C512,83.136,492.864,64,469.333,64z
			 M85.355,405.333H42.667V106.667h42.667v42.645v0.021v213.333c0,0.043,0.021,0.085,0.021,0.128V405.333z M170.667,277.333
			c-11.776,0-21.333-9.557-21.333-21.333s9.557-21.333,21.333-21.333S192,244.224,192,256S182.443,277.333,170.667,277.333z
			 M341.333,277.333C329.557,277.333,320,267.776,320,256s9.557-21.333,21.333-21.333c11.776,0,21.333,9.557,21.333,21.333
			S353.109,277.333,341.333,277.333z M426.667,405.333v-42.667V149.333v-42.667h42.667l0.021,298.667H426.667z"/>
	</g>
</g>
</svg>