<?xml version="1.0" encoding="utf-8"?>
<!-- Svg Vector Icons : http://www.onlinewebfonts.com/icon -->
<!DOCTYPE svg PUBLIC "-//W3C//DTD SVG 1.1//EN" "http://www.w3.org/Graphics/SVG/1.1/DTD/svg11.dtd">
<svg version="1.1" style="fill: #000520" xmlns="http://www.w3.org/2000/svg" xmlns:xlink="http://www.w3.org/1999/xlink" x="0px" y="0px" viewBox="0 0 1000 1000" enable-background="new 0 0 1000 1000" xml:space="preserve">
<metadata> Svg Vector Icons : http://www.onlinewebfonts.com/icon </metadata>
<g><g transform="translate(0.000000,511.000000) scale(0.100000,-0.100000)"><path d="M5981.3,5001.1c-311.5-35.9-427.3-93.8-485.2-249.6c-63.9-163.8,4-333.5,161.7-409.4c67.9-33.9,109.8-41.9,173.7-31.9c353.4,53.9,726.9,26,986.5-71.9c93.8-33.9,107.8-45.9,97.8-83.9c-4-22-61.9-289.6-123.8-591.1c-101.9-487.2-119.8-553.1-163.8-587.1c-55.9-45.9-121.8-179.7-123.8-251.6c0-28,14-89.9,31.9-139.8l32-89.9l-271.6-1298C6147,484.2,6003.2-178.7,5975.3-276.6c-63.9-219.7-181.7-491.2-277.6-641c-93.9-147.8-247.6-311.5-291.6-311.5c-18,0-103.8,20-191.7,43.9c-131.8,35.9-211.7,41.9-487.2,41.9c-291.5,2-351.5-4-523.2-51.9c-371.4-99.8-668.9-267.6-948.5-539.2c-255.6-249.6-477.3-605.1-547.1-878.6l-24-95.9l-251.6,12c-243.6,14-253.6,12-321.5-33.9c-159.8-109.8-211.7-311.5-113.8-457.3c81.9-123.8,169.7-149.8,690.9-195.7c255.6-24,473.3-47.9,483.2-53.9c10-6,18-32,18-57.9c0-24,20-107.8,41.9-181.7C3563.1-4751.6,4849-5140.9,5719.7-4430c195.7,159.7,413.3,491.2,487.2,738.8l24,83.9l69.9-53.9c59.9-45.9,89.9-53.9,195.7-53.9c135.8,0,197.7,30,275.6,137.8c37.9,49.9,41.9,81.9,39.9,387.4c0,303.5-6,349.5-55.9,513.2c-71.9,243.6-179.7,469.3-305.5,645c-57.9,79.9-105.8,161.7-105.8,181.7s155.8,786.8,347.5,1701.3c419.3,2000.9,391.4,1917,810.7,2584c159.8,253.6,375.4,676.9,491.2,958.5c51.9,123.8,57.9,163.8,57.9,359.4c0,211.7-2,225.6-71.9,371.4c-233.6,487.2-904.6,840.7-1675.4,882.6C6210.9,5013.1,6065.1,5009.1,5981.3,5001.1z M4984.8-2385.3c617-191.7,830.7-958.5,401.4-1443.7c-287.5-327.5-794.7-391.4-1164.2-147.8c-137.8,91.8-235.6,209.7-319.5,385.4c-59.9,127.8-63.9,149.8-63.9,355.4s4,227.7,63.9,355.4c81.9,173.7,159.7,271.6,291.5,367.4C4409.7-2355.3,4723.2-2303.4,4984.8-2385.3z"/></g></g>
</svg>